<svg width="32" height="32" viewBox="0 0 32 32" fill="none" xmlns="http://www.w3.org/2000/svg">
<path fill-rule="evenodd" clip-rule="evenodd" d="M11.8889 3.24009C12.1834 3.915 11.8751 4.70089 11.2002 4.99541C9.40362 5.77939 7.82647 6.99153 6.60661 8.52585C5.38675 10.0602 4.56132 11.8699 4.20248 13.797C3.84363 15.724 3.96231 17.7096 4.54812 19.5801C5.13394 21.4507 6.16905 23.1493 7.56298 24.5274C8.95691 25.9055 10.6672 26.9212 12.5443 27.4856C14.4215 28.05 16.4083 28.146 18.3311 27.7651C20.2539 27.3843 22.0541 26.5383 23.5744 25.301C25.0947 24.0637 26.2887 22.4728 27.0522 20.6674C27.339 19.9892 28.1213 19.6719 28.7995 19.9586C29.4777 20.2454 29.7951 21.0278 29.5083 21.706C28.5752 23.9126 27.1158 25.857 25.2577 27.3692C23.3996 28.8815 21.1993 29.9155 18.8492 30.381C16.4991 30.8465 14.0708 30.7291 11.7765 30.0393C9.48221 29.3494 7.39185 28.1081 5.68816 26.4237C3.98447 24.7394 2.71933 22.6634 2.00333 20.3771C1.28733 18.0909 1.14229 15.664 1.58088 13.3088C2.01946 10.9535 3.02833 8.74158 4.51927 6.8663C6.01021 4.99102 7.93783 3.50952 10.1336 2.55132C10.8085 2.2568 11.5944 2.56517 11.8889 3.24009Z" fill="#447A43"/>
<path fill-rule="evenodd" clip-rule="evenodd" d="M15.057 1.7239C15.3071 1.47385 15.6462 1.33337 15.9998 1.33337C17.9259 1.33337 19.8331 1.71274 21.6125 2.44981C23.392 3.18688 25.0088 4.26722 26.3707 5.62914C27.7327 6.99107 28.813 8.60791 29.5501 10.3874C30.2871 12.1668 30.6665 14.074 30.6665 16C30.6665 16.7364 30.0695 17.3334 29.3332 17.3334H15.9998C15.2635 17.3334 14.6665 16.7364 14.6665 16V2.66671C14.6665 2.31309 14.807 1.97395 15.057 1.7239ZM17.3332 4.07434V14.6667H27.9255C27.8005 13.5486 27.5186 12.4514 27.0864 11.4078C26.4833 9.95193 25.5994 8.62906 24.4851 7.51476C23.3708 6.40046 22.0479 5.51654 20.592 4.91349C19.5485 4.48124 18.4513 4.19935 17.3332 4.07434Z" fill="#447A43"/>
</svg>
