<svg width="32" height="32" viewBox="0 0 32 32" fill="none" xmlns="http://www.w3.org/2000/svg">
<path fill-rule="evenodd" clip-rule="evenodd" d="M17.8641 1.44359C18.4071 1.67928 18.7296 2.24471 18.6562 2.83204L17.5102 12H27.9999C28.5172 12 28.9879 12.2993 29.2073 12.7678C29.4267 13.2363 29.3554 13.7895 29.0241 14.1869L15.6908 30.1869C15.3119 30.6416 14.6785 30.7921 14.1356 30.5564C13.5926 30.3207 13.2701 29.7553 13.3435 29.1679L14.4895 20H3.99985C3.4825 20 3.01184 19.7007 2.7924 19.2322C2.57296 18.7637 2.64435 18.2105 2.97556 17.8131L16.3089 1.81308C16.6878 1.35837 17.3212 1.2079 17.8641 1.44359ZM6.84658 17.3333H15.9999C16.3823 17.3333 16.7463 17.4975 16.9994 17.7843C17.2525 18.071 17.3703 18.4526 17.3229 18.832L16.5536 24.986L25.1531 14.6667H15.9999C15.6174 14.6667 15.2534 14.5024 15.0003 14.2157C14.7472 13.929 14.6294 13.5474 14.6768 13.1679L15.4461 7.01394L6.84658 17.3333Z" fill="#447A43"/>
</svg>
