<svg width="164" height="40" viewBox="0 0 164 40" fill="none" xmlns="http://www.w3.org/2000/svg">
<path d="M4.82269 4.8227V10.4965H16.4539V21.5603L13.0496 12.4823H4.82269V35.1773H10.4965V17.7778L17.0213 35.1773H21.5603L28.0851 17.7778V35.1773H33.7589V12.4823H25.5319L22.1277 21.5603V10.4965H33.7589V4.8227H4.82269Z" fill="white"/>
<path fill-rule="evenodd" clip-rule="evenodd" d="M0 0H38.5816V40H0V0ZM2.83688 2.83688H35.7447V37.1631H2.83688V2.83688Z" fill="white"/>
<path d="M50.2642 12.4545H54.0568L58.0625 22.2273H58.233L62.2386 12.4545H66.0312V27H63.0483V17.5327H62.9276L59.1634 26.929H57.1321L53.3679 17.4972H53.2472V27H50.2642V12.4545ZM71.3988 23.0085L75.3263 16.0909H78.3093V27H75.4258V20.0611L71.5124 27H68.5082V16.0909H71.3988V23.0085ZM80.7347 27V16.0909H83.7603V20.3239H84.6126L87.5813 16.0909H91.1325L87.2759 21.5028L91.1751 27H87.5813L84.8896 23.1293H83.7603V27H80.7347ZM96.9332 27.2131C95.8158 27.2131 94.8546 26.9763 94.0497 26.5028C93.2495 26.0246 92.634 25.3617 92.2031 24.5142C91.777 23.6667 91.5639 22.6913 91.5639 21.5881C91.5639 20.4706 91.7794 19.4905 92.2102 18.6477C92.6458 17.8002 93.2637 17.1397 94.0639 16.6662C94.8641 16.188 95.8158 15.9489 96.919 15.9489C97.8707 15.9489 98.7041 16.1217 99.419 16.4673C100.134 16.813 100.7 17.2983 101.116 17.9233C101.533 18.5483 101.763 19.2822 101.805 20.125H98.9503C98.8698 19.5805 98.6567 19.1425 98.3111 18.8111C97.9702 18.4749 97.5227 18.3068 96.9688 18.3068C96.5 18.3068 96.0904 18.4347 95.7401 18.6903C95.3944 18.9413 95.1245 19.3082 94.9304 19.7912C94.7363 20.2741 94.6392 20.8589 94.6392 21.5455C94.6392 22.2415 94.7339 22.8333 94.9233 23.321C95.1174 23.8087 95.3897 24.1804 95.7401 24.4361C96.0904 24.6918 96.5 24.8196 96.9688 24.8196C97.3144 24.8196 97.6245 24.7486 97.8991 24.6065C98.1785 24.4645 98.4081 24.2585 98.5881 23.9886C98.7727 23.714 98.8935 23.3849 98.9503 23.0014H101.805C101.758 23.8348 101.531 24.5687 101.124 25.2031C100.721 25.8329 100.165 26.3253 99.4545 26.6804C98.7443 27.0355 97.9039 27.2131 96.9332 27.2131ZM101.761 14.9901V12.4545H113.707V14.9901H109.254V27H106.214V14.9901H101.761ZM114.485 31.0909V16.0909H117.468V17.9233H117.603C117.735 17.6297 117.927 17.3314 118.178 17.0284C118.434 16.7206 118.765 16.465 119.172 16.2614C119.584 16.053 120.096 15.9489 120.706 15.9489C121.502 15.9489 122.236 16.1572 122.908 16.5739C123.58 16.9858 124.118 17.6084 124.52 18.4418C124.923 19.2704 125.124 20.3097 125.124 21.5597C125.124 22.7765 124.927 23.804 124.534 24.642C124.146 25.4754 123.616 26.1075 122.944 26.5384C122.276 26.9645 121.528 27.1776 120.699 27.1776C120.112 27.1776 119.613 27.0805 119.201 26.8864C118.793 26.6922 118.46 26.4484 118.199 26.1548C117.939 25.8565 117.74 25.5559 117.603 25.2528H117.51V31.0909H114.485ZM117.446 21.5455C117.446 22.1941 117.536 22.7599 117.716 23.2429C117.896 23.7259 118.157 24.1023 118.498 24.3722C118.838 24.6373 119.253 24.7699 119.74 24.7699C120.233 24.7699 120.65 24.6349 120.99 24.3651C121.331 24.0904 121.589 23.7116 121.765 23.2287C121.944 22.741 122.034 22.1799 122.034 21.5455C122.034 20.9157 121.947 20.3617 121.772 19.8835C121.596 19.4053 121.338 19.0312 120.998 18.7614C120.657 18.4915 120.238 18.3565 119.74 18.3565C119.248 18.3565 118.831 18.4867 118.49 18.7472C118.154 19.0076 117.896 19.3769 117.716 19.8551C117.536 20.3333 117.446 20.8968 117.446 21.5455ZM132.113 27.2131C130.99 27.2131 130.025 26.9858 129.215 26.5312C128.41 26.072 127.79 25.4233 127.354 24.5852C126.918 23.7424 126.701 22.7457 126.701 21.5952C126.701 20.473 126.918 19.4882 127.354 18.6406C127.79 17.7931 128.403 17.1326 129.194 16.6591C129.989 16.1856 130.922 15.9489 131.992 15.9489C132.712 15.9489 133.382 16.0649 134.002 16.2969C134.627 16.5241 135.171 16.8674 135.635 17.3267C136.104 17.786 136.469 18.3636 136.729 19.0597C136.989 19.7509 137.12 20.5606 137.12 21.4886V22.3196H127.908V20.4446H134.272C134.272 20.009 134.177 19.6231 133.988 19.2869C133.798 18.9508 133.535 18.688 133.199 18.4986C132.868 18.3045 132.482 18.2074 132.042 18.2074C131.582 18.2074 131.175 18.3139 130.82 18.527C130.47 18.7353 130.195 19.017 129.996 19.3722C129.797 19.7225 129.695 20.1132 129.691 20.544V22.3267C129.691 22.8665 129.79 23.3329 129.989 23.7259C130.193 24.1188 130.479 24.4219 130.848 24.6349C131.218 24.848 131.656 24.9545 132.162 24.9545C132.498 24.9545 132.806 24.9072 133.086 24.8125C133.365 24.7178 133.604 24.5758 133.803 24.3864C134.002 24.197 134.153 23.965 134.257 23.6903L137.056 23.875C136.914 24.5473 136.623 25.1345 136.182 25.6364C135.747 26.1335 135.183 26.5218 134.492 26.8011C133.805 27.0758 133.012 27.2131 132.113 27.2131ZM141.985 23.0085L145.912 16.0909H148.895V27H146.012V20.0611L142.098 27H139.094V16.0909H141.985V23.0085ZM145.394 12.2841H147.503C147.498 13.1458 147.179 13.8395 146.544 14.3651C145.915 14.8906 145.062 15.1534 143.988 15.1534C142.908 15.1534 142.053 14.8906 141.424 14.3651C140.794 13.8395 140.479 13.1458 140.479 12.2841H142.574C142.569 12.6108 142.674 12.9044 142.887 13.1648C143.105 13.4252 143.471 13.5554 143.988 13.5554C144.489 13.5554 144.849 13.4276 145.067 13.1719C145.285 12.9162 145.394 12.6203 145.394 12.2841ZM150.468 30.196V24.5994H151.306C151.548 24.4479 151.742 24.2064 151.889 23.875C152.04 23.5436 152.163 23.1529 152.258 22.7031C152.358 22.2533 152.433 21.768 152.485 21.2472C152.542 20.7216 152.592 20.1913 152.635 19.6562L152.919 16.0909H161.285V24.5994H162.975V30.196H160.092V27H153.423V30.196H150.468ZM154.318 24.5994H158.43V18.4205H155.49L155.376 19.6562C155.296 20.821 155.18 21.8106 155.028 22.625C154.877 23.4347 154.64 24.0928 154.318 24.5994Z" fill="white"/>
</svg>
